<svg xmlns="http://www.w3.org/2000/svg" width="512" height="512" viewBox="0 0 512 512" version="1.1"><path d="M 120 236.464 L 120 336.928 110.250 337.214 L 100.500 337.500 100.228 356.750 L 99.957 376 255.478 376 L 411 376 411 356.500 L 411 337 401.500 337 L 392 337 392 236.500 L 392 136 256 136 L 120 136 120 236.464 M 138 236.500 L 138 319 256 319 L 374 319 374 236.500 L 374 154 256 154 L 138 154 138 236.500 M 257.263 183.750 C 254.342 197.590, 236 289.778, 236 290.619 C 236 291.556, 252.976 295.358, 253.741 294.592 C 253.941 294.393, 254.973 289.340, 256.034 283.365 C 257.096 277.389, 262.018 252.284, 266.973 227.575 C 271.929 202.866, 275.786 182.453, 275.545 182.212 C 274.925 181.592, 262.924 179.077, 260.383 179.035 C 258.655 179.006, 258.080 179.875, 257.263 183.750 M 184.997 212.503 L 160.510 237.005 184.752 261.247 L 208.993 285.488 215.740 278.741 L 222.487 271.994 204.747 254.254 L 187.007 236.514 204.743 218.756 L 222.480 200.999 215.982 194.500 L 209.483 188.002 184.997 212.503 M 296.240 195.240 L 290 201.480 307.740 219.240 L 325.479 237 308 254.500 L 290.521 272.001 296.761 278.241 L 303.002 284.482 327.001 260.499 L 351 236.515 327.258 212.758 C 314.200 199.691, 303.283 189, 302.998 189 C 302.713 189, 299.672 191.808, 296.240 195.240" stroke="none" fill="#cde2f4" fill-rule="evenodd"/><path d="M 225 1.514 C 116.007 14.979, 26.946 97.022, 4.936 204.237 C -0 228.284, -1.440 262.012, 1.446 286 C 15.629 403.892, 108.108 496.371, 226 510.554 C 241.201 512.383, 270.398 512.364, 286.201 510.516 C 323.099 506.200, 357.856 494.126, 390.376 474.329 C 422.541 454.747, 454.747 422.541, 474.329 390.376 C 494.019 358.031, 507.940 317.685, 510.611 285.219 C 510.986 280.664, 511.677 276.700, 512.146 276.410 C 512.616 276.119, 513 266.432, 513 254.882 C 513 243.332, 512.614 234.121, 512.141 234.413 C 511.669 234.704, 510.981 231.327, 510.613 226.908 C 509.684 215.767, 505.727 196.524, 501.459 182.388 C 471.885 84.428, 387.632 13.673, 286 1.446 C 271.761 -0.267, 239.123 -0.231, 225 1.514 M 120 236.464 L 120 336.928 110.250 337.214 L 100.500 337.500 100.228 356.750 L 99.957 376 255.478 376 L 411 376 411 356.500 L 411 337 401.500 337 L 392 337 392 236.500 L 392 136 256 136 L 120 136 120 236.464 M 138 236.500 L 138 319 256 319 L 374 319 374 236.500 L 374 154 256 154 L 138 154 138 236.500 M 257.263 183.750 C 254.342 197.590, 236 289.778, 236 290.619 C 236 291.556, 252.976 295.358, 253.741 294.592 C 253.941 294.393, 254.973 289.340, 256.034 283.365 C 257.096 277.389, 262.018 252.284, 266.973 227.575 C 271.929 202.866, 275.786 182.453, 275.545 182.212 C 274.925 181.592, 262.924 179.077, 260.383 179.035 C 258.655 179.006, 258.080 179.875, 257.263 183.750 M 184.997 212.503 L 160.510 237.005 184.752 261.247 L 208.993 285.488 215.740 278.741 L 222.487 271.994 204.747 254.254 L 187.007 236.514 204.743 218.756 L 222.480 200.999 215.982 194.500 L 209.483 188.002 184.997 212.503 M 296.240 195.240 L 290 201.480 307.740 219.240 L 325.479 237 308 254.500 L 290.521 272.001 296.761 278.241 L 303.002 284.482 327.001 260.499 L 351 236.515 327.258 212.758 C 314.200 199.691, 303.283 189, 302.998 189 C 302.713 189, 299.672 191.808, 296.240 195.240 M 0.425 256 C 0.425 267.825, 0.569 272.663, 0.746 266.750 C 0.923 260.837, 0.923 251.162, 0.746 245.250 C 0.569 239.338, 0.425 244.175, 0.425 256" stroke="none" fill="#11a3d4" fill-rule="evenodd"/></svg>